<svg t="1710848796058" class="icon" viewBox="0 0 1024 1024" version="1.1" xmlns="http://www.w3.org/2000/svg" p-id="5269"
     width="200" height="200">
    <path d="M855.04 143.36l-138.24 148.48s-81.92-112.64-276.48-71.68c-142.4896 30.0032-199.68 199.68-199.68 199.68L71.68 291.84S184.7296 54.2208 435.2 20.48c266.24-35.84 419.84 122.88 419.84 122.88z"
          fill="#EA4235" p-id="5270"></path>
    <path d="M71.68 291.84l168.96 128s-35.84 76.8-5.12 194.56l-163.84 128s-117.76-204.8 0-450.56z" fill="#FABC05"
          p-id="5271"></path>
    <path d="M235.52 614.4s51.2 148.48 204.8 199.68c0 0 133.12 40.96 256-40.96l148.48 122.88s-122.88 138.24-389.12 117.76c-265.8816-20.4288-384-271.36-384-271.36l163.84-128z"
          fill="#34A853" p-id="5272"></path>
    <path d="M696.32 773.12l148.48 122.88s189.44-97.28 148.48-471.04h-471.04v189.44h281.6s-35.84 122.88-107.52 158.72z"
          fill="#4385F5" p-id="5273"></path>
</svg>